REM DIRINDEX 1\2\6,1\2\7,1\2\8,1\2\9,1\3\10,1\3\11,1\4\12,1\4\13,1\4\14,1\5\15,1\5\16,1\5\17
REM DIRNAME cjc029,folder01,folder02,folder03,folder04,folder05,folder06,folder07,folder08,folder09,folder10,folder11,folder12,folder13,folder14,folder15,folder16
TITLE ""
FILE "1400_2_sec09_0801_0816.mp3" MP3
  TRACK 01 AUDIO
    TITLE "0:"
    INDEX 01 00:00:00
  TRACK 02 AUDIO
    TITLE "12:cjc029_3200"
    INDEX 01 00:03:25
  TRACK 03 AUDIO
    TITLE "0:"
    INDEX 01 00:04:68
  TRACK 04 AUDIO
    TITLE "12:cjc029_3201"
    INDEX 01 00:05:44
  TRACK 05 AUDIO
    TITLE "0:"
    INDEX 01 00:06:65
  TRACK 06 AUDIO
    TITLE "13:cjc029_3202"
    INDEX 01 00:07:66
  TRACK 07 AUDIO
    TITLE "0:"
    INDEX 01 00:09:12
  TRACK 08 AUDIO
    TITLE "14:cjc029_3203"
    INDEX 01 00:09:16
  TRACK 09 AUDIO
    TITLE "0:"
    INDEX 01 00:11:72
  TRACK 10 AUDIO
    TITLE "13:cjc029_3204"
    INDEX 01 00:12:56
  TRACK 11 AUDIO
    TITLE "0:"
    INDEX 01 00:13:73
  TRACK 12 AUDIO
    TITLE "14:cjc029_3205"
    INDEX 01 00:14:04
  TRACK 13 AUDIO
    TITLE "0:"
    INDEX 01 00:16:65
  TRACK 14 AUDIO
    TITLE "13:cjc029_3206"
    INDEX 01 00:17:45
  TRACK 15 AUDIO
    TITLE "0:"
    INDEX 01 00:18:42
  TRACK 16 AUDIO
    TITLE "14:cjc029_3207"
    INDEX 01 00:18:46
  TRACK 17 AUDIO
    TITLE "0:"
    INDEX 01 00:20:20
  TRACK 18 AUDIO
    TITLE "13:cjc029_3208"
    INDEX 01 00:21:04
  TRACK 19 AUDIO
    TITLE "0:"
    INDEX 01 00:22:17
  TRACK 20 AUDIO
    TITLE "14:cjc029_3209"
    INDEX 01 00:22:23
  TRACK 21 AUDIO
    TITLE "0:"
    INDEX 01 00:24:69
  TRACK 22 AUDIO
    TITLE "13:cjc029_3210"
    INDEX 01 00:25:50
  TRACK 23 AUDIO
    TITLE "0:"
    INDEX 01 00:26:62
  TRACK 24 AUDIO
    TITLE "14:cjc029_3211"
    INDEX 01 00:26:67
  TRACK 25 AUDIO
    TITLE "0:"
    INDEX 01 00:29:34
  TRACK 26 AUDIO
    TITLE "13:cjc029_3212"
    INDEX 01 00:30:16
  TRACK 27 AUDIO
    TITLE "0:"
    INDEX 01 00:31:31
  TRACK 28 AUDIO
    TITLE "14:cjc029_3213"
    INDEX 01 00:31:37
  TRACK 29 AUDIO
    TITLE "0:"
    INDEX 01 00:35:63
  TRACK 30 AUDIO
    TITLE "13:cjc029_3214"
    INDEX 01 00:36:44
  TRACK 31 AUDIO
    TITLE "0:"
    INDEX 01 00:37:63
  TRACK 32 AUDIO
    TITLE "14:cjc029_3215"
    INDEX 01 00:37:67
  TRACK 33 AUDIO
    TITLE "0:"
    INDEX 01 00:39:23
  TRACK 34 AUDIO
    TITLE "13:cjc029_3216"
    INDEX 01 00:40:05
  TRACK 35 AUDIO
    TITLE "0:"
    INDEX 01 00:41:08
  TRACK 36 AUDIO
    TITLE "14:cjc029_3217"
    INDEX 01 00:41:12
  TRACK 37 AUDIO
    TITLE "0:"
    INDEX 01 00:44:01
  TRACK 38 AUDIO
    TITLE "13:cjc029_3218"
    INDEX 01 00:44:58
  TRACK 39 AUDIO
    TITLE "0:"
    INDEX 01 00:45:67
  TRACK 40 AUDIO
    TITLE "14:cjc029_3219"
    INDEX 01 00:46:00
  TRACK 41 AUDIO
    TITLE "0:"
    INDEX 01 00:48:34
  TRACK 42 AUDIO
    TITLE "13:cjc029_3220"
    INDEX 01 00:49:18
  TRACK 43 AUDIO
    TITLE "0:"
    INDEX 01 00:50:33
  TRACK 44 AUDIO
    TITLE "14:cjc029_3221"
    INDEX 01 00:50:41
  TRACK 45 AUDIO
    TITLE "0:"
    INDEX 01 00:51:65
  TRACK 46 AUDIO
    TITLE "13:cjc029_3222"
    INDEX 01 00:52:45
  TRACK 47 AUDIO
    TITLE "0:"
    INDEX 01 00:53:60
  TRACK 48 AUDIO
    TITLE "14:cjc029_3223"
    INDEX 01 00:53:62
  TRACK 49 AUDIO
    TITLE "0:"
    INDEX 01 00:55:08
  TRACK 50 AUDIO
    TITLE "13:cjc029_3224"
    INDEX 01 00:55:63
  TRACK 51 AUDIO
    TITLE "0:"
    INDEX 01 00:57:05
  TRACK 52 AUDIO
    TITLE "14:cjc029_3225"
    INDEX 01 00:57:09
  TRACK 53 AUDIO
    TITLE "0:"
    INDEX 01 00:59:28
  TRACK 54 AUDIO
    TITLE "13:cjc029_3226"
    INDEX 01 01:00:12
  TRACK 55 AUDIO
    TITLE "0:"
    INDEX 01 01:01:29
  TRACK 56 AUDIO
    TITLE "14:cjc029_3227"
    INDEX 01 01:01:33
  TRACK 57 AUDIO
    TITLE "0:"
    INDEX 01 01:02:40
  TRACK 58 AUDIO
    TITLE "13:cjc029_3228"
    INDEX 01 01:03:24
  TRACK 59 AUDIO
    TITLE "0:"
    INDEX 01 01:04:31
  TRACK 60 AUDIO
    TITLE "14:cjc029_3229"
    INDEX 01 01:04:35
  TRACK 61 AUDIO
    TITLE "0:"
    INDEX 01 01:06:28
  TRACK 62 AUDIO
    TITLE "13:cjc029_3230"
    INDEX 01 01:07:12
  TRACK 63 AUDIO
    TITLE "0:"
    INDEX 01 01:08:35
  TRACK 64 AUDIO
    TITLE "14:cjc029_3231"
    INDEX 01 01:08:40
  TRACK 65 AUDIO
    TITLE "0:"
    INDEX 01 01:11:11
  TRACK 66 AUDIO
    TITLE "13:cjc029_3232"
    INDEX 01 01:11:64
  TRACK 67 AUDIO
    TITLE "0:"
    INDEX 01 01:12:73
  TRACK 68 AUDIO
    TITLE "14:cjc029_3233"
    INDEX 01 01:13:02
  TRACK 69 AUDIO
    TITLE "0:"
    INDEX 01 01:15:74
